<svg width="140" height="40" viewBox="0 0 140 40" fill="none" xmlns="http://www.w3.org/2000/svg">
<path fill-rule="evenodd" clip-rule="evenodd" d="M28.2544 0.96211C26.6549 0.309153 22.3796 -0.559489 16.3379 0.487196L16.3378 0.487477C7.05206 2.12905 0 10.2376 0 19.9948C0 28.1863 4.96877 35.2137 12.0562 38.2307C12.5714 38.5036 13.1626 38.7506 13.8183 38.9698C17.0197 40.0372 21.2517 40.2614 24.8697 39.7062C28.0534 39.3778 30.9984 38.1501 33.4899 36.2628C38.0945 32.7731 41.1481 27.0214 41.2943 20.4815V20.4286C41.3012 20.2824 41.3012 20.1306 41.3012 19.9845C41.3012 19.836 41.3012 19.6899 41.2977 19.5369C41.296 19.473 41.2931 19.4108 41.2902 19.3487C41.2874 19.2866 41.2845 19.2245 41.2828 19.1606C40.8571 11.3252 34.3701 5.10519 26.4323 5.10519C26.0307 5.10519 25.6291 5.12245 25.2356 5.15121L25.2322 5.15812L25.1551 5.16732L25.147 5.16502C24.3336 5.2329 23.542 5.36752 22.7711 5.56311C28.5056 7.42705 32.688 13.2467 32.688 20.134C32.688 25.953 29.7032 31.0085 25.3218 33.5615C25.2092 33.6155 25.0926 33.667 24.9726 33.7176C22.1913 34.8694 18.0448 34.7043 15.6795 33.3502C12.0673 31.1852 9.4289 27.3956 8.64085 22.9138C8.59827 22.686 8.56605 22.4593 8.53499 22.2246C8.51313 22.0866 8.49587 21.9404 8.48437 21.7989C8.47056 21.6528 8.45675 21.5044 8.44524 21.3582C8.43143 21.2133 8.42108 21.0637 8.41763 20.9187C8.40727 20.7726 8.39923 20.6242 8.39923 20.4746L8.39913 20.4702C8.39571 20.3221 8.39232 20.1751 8.39232 20.027V19.9775C8.39232 19.8993 8.39232 19.8211 8.39577 19.7428C8.52003 10.0043 16.4521 2.14821 26.2228 2.14821C28.807 2.14821 31.2635 2.69819 33.4795 3.68883C31.9007 2.49356 30.1415 1.56501 28.2544 0.96211Z" fill="black"/>
<path d="M86.7135 39.214C86.4749 39.4526 86.1485 39.5656 85.709 39.5656H81.7408C81.2762 39.5656 80.9246 39.4526 80.686 39.214C80.4474 38.9754 80.3344 38.6489 80.3344 38.2094V17.0881L69.7486 38.7117C69.6105 39.0131 69.4346 39.2266 69.1961 39.3647C68.9575 39.5028 68.6812 39.5656 68.3422 39.5656H65.4791C65.14 39.5656 64.8638 39.5028 64.6252 39.3647C64.3866 39.2266 64.2108 39.0131 64.0726 38.7117L53.4366 17.0881V38.2094C53.4366 38.6489 53.3236 38.9754 53.085 39.214C52.8464 39.4526 52.5199 39.5656 52.0804 39.5656H48.1123C47.6477 39.5656 47.2961 39.4526 47.0575 39.214C46.8189 38.9754 46.7059 38.6489 46.7059 38.2094V3.73965C46.7059 3.30015 46.8189 2.97368 47.0575 2.73509C47.2961 2.4965 47.61 2.38348 48.0119 2.38348H51.8293C52.5953 2.38348 53.1353 2.72252 53.4366 3.38805L66.8855 30.7378L80.3344 3.38805C80.6358 2.72252 81.1883 2.38348 81.992 2.38348H85.709C86.1485 2.38348 86.4749 2.4965 86.7135 2.73509C86.9521 2.97368 87.0651 3.30015 87.0651 3.73965V38.2094C87.0651 38.6364 86.9396 38.9754 86.7135 39.214Z" fill="black"/>
<path d="M117.768 2.73509C118.007 2.4965 118.358 2.38348 118.823 2.38348H122.791C123.23 2.38348 123.557 2.4965 123.795 2.73509C124.034 2.97368 124.147 3.30015 124.147 3.73965V38.109C124.147 38.5736 124.034 38.9378 123.821 39.1889C123.607 39.4401 123.306 39.5656 122.942 39.5656H119.325C118.923 39.5656 118.584 39.4903 118.295 39.3396C118.007 39.1889 117.768 38.9503 117.567 38.6113L102.36 14.6268V38.2094C102.36 38.6489 102.247 38.9754 102.009 39.214C101.77 39.4526 101.443 39.5656 101.004 39.5656H97.0358C96.5712 39.5656 96.2196 39.4526 95.981 39.214C95.7424 38.9754 95.6294 38.6489 95.6294 38.2094V3.84013C95.6294 3.37551 95.7424 3.01133 95.9559 2.76019C96.1694 2.50904 96.4833 2.38348 96.8851 2.38348H100.502C100.903 2.38348 101.243 2.45882 101.531 2.60951C101.82 2.76019 102.046 2.99877 102.209 3.33781L117.416 27.3223V3.73965C117.416 3.30015 117.529 2.96112 117.768 2.73509Z" fill="black"/>
<path d="M139.091 39.214C138.853 39.4526 138.526 39.5656 138.087 39.5656H134.119C133.654 39.5656 133.302 39.4526 133.064 39.214C132.825 38.9754 132.712 38.6489 132.712 38.2094V3.73965C132.712 3.30015 132.825 2.97368 133.064 2.73509C133.302 2.4965 133.654 2.38348 134.119 2.38348H138.087C138.526 2.38348 138.853 2.4965 139.091 2.73509C139.33 2.97368 139.443 3.30015 139.443 3.73965V38.2094C139.443 38.6364 139.33 38.9754 139.091 39.214Z" fill="black"/>
</svg>
