<svg width="98" height="28" viewBox="0 0 98 28" fill="none" xmlns="http://www.w3.org/2000/svg">
<path fill-rule="evenodd" clip-rule="evenodd" d="M19.7469 0.659907C21.0805 1.08166 22.3235 1.73558 23.438 2.57936C21.8867 1.88583 20.1669 1.50081 18.3578 1.50081C11.5176 1.50081 5.96462 7.00066 5.87763 13.8183C5.87521 13.8731 5.87521 13.9278 5.87521 13.9826V14.0173C5.87521 14.121 5.87759 14.224 5.87998 14.3277L5.88005 14.3306C5.88005 14.4353 5.88568 14.5392 5.89293 14.6415C5.89534 14.743 5.90259 14.8477 5.91226 14.9492C5.92031 15.0515 5.92999 15.1554 5.93965 15.2577C5.94771 15.3568 5.95979 15.4591 5.97509 15.5557C5.99684 15.7201 6.01939 15.8787 6.0492 16.0382C6.60092 19.1759 8.44817 21.8291 10.9771 23.3447C12.6331 24.2924 15.5356 24.408 17.4826 23.6016C17.5665 23.5663 17.6482 23.5302 17.727 23.4924C20.7943 21.7051 22.8839 18.1659 22.8839 14.0922C22.8839 9.27052 19.9559 5.19637 15.9414 3.89149C16.481 3.75455 17.0352 3.66031 17.6047 3.61279L17.6103 3.6144L17.6643 3.60796L17.6667 3.60313C17.9422 3.58299 18.2233 3.5709 18.5044 3.5709C24.0615 3.5709 28.6028 7.92536 28.9008 13.4107C28.902 13.4554 28.9041 13.4989 28.9061 13.5424C28.9081 13.5859 28.9101 13.6294 28.9113 13.6741C28.9137 13.7813 28.9137 13.8836 28.9137 13.9875C28.9137 14.0898 28.9137 14.1961 28.9089 14.2984V14.3354C28.8066 18.9138 26.6688 22.9404 23.4453 25.3835C21.7036 26.7028 19.6454 27.5616 17.4204 27.7931C14.8855 28.1836 11.9183 28.0272 9.67433 27.279C9.21449 27.1253 8.80006 26.952 8.43895 26.7606C3.4779 24.6482 0 19.7289 0 13.9947C0 6.97362 5.21592 1.17192 11.9847 0.252722C15.8846 -0.33279 18.652 0.224564 19.7469 0.659907Z" fill="white"/>
<path d="M60.7056 27.452C60.5386 27.619 60.3101 27.6981 60.0024 27.6981H57.2244C56.8991 27.6981 56.653 27.619 56.486 27.452C56.3189 27.2849 56.2398 27.0564 56.2398 26.7487V11.9622L48.829 27.1003C48.7323 27.3113 48.6092 27.4608 48.4422 27.5575C48.2751 27.6542 48.0818 27.6981 47.8444 27.6981H45.84C45.6027 27.6981 45.4093 27.6542 45.2422 27.5575C45.0752 27.4608 44.9521 27.3113 44.8554 27.1003L37.4095 11.9622V26.7487C37.4095 27.0564 37.3303 27.2849 37.1633 27.452C36.9963 27.619 36.7677 27.6981 36.46 27.6981H33.6821C33.3568 27.6981 33.1107 27.619 32.9436 27.452C32.7766 27.2849 32.6975 27.0564 32.6975 26.7487V2.61739C32.6975 2.3097 32.7766 2.08114 32.9436 1.91412C33.1107 1.74709 33.3304 1.66797 33.6118 1.66797H36.2842C36.8205 1.66797 37.1985 1.90532 37.4095 2.37124L46.8246 21.518L56.2398 2.37124C56.4508 1.90532 56.8376 1.66797 57.4002 1.66797H60.0024C60.3101 1.66797 60.5386 1.74709 60.7056 1.91412C60.8727 2.08114 60.9518 2.3097 60.9518 2.61739V26.7487C60.9518 27.0476 60.8639 27.2849 60.7056 27.452Z" fill="white"/>
<path d="M82.4461 1.91412C82.6131 1.74709 82.8593 1.66797 83.1845 1.66797H85.9625C86.2701 1.66797 86.4987 1.74709 86.6657 1.91412C86.8328 2.08114 86.9119 2.3097 86.9119 2.61739V26.6784C86.9119 27.0036 86.8328 27.2586 86.6833 27.4344C86.5339 27.6102 86.3229 27.6981 86.0679 27.6981H83.5361C83.2548 27.6981 83.0175 27.6454 82.8153 27.5399C82.6131 27.4344 82.4461 27.2674 82.3054 27.03L71.6595 10.2392V26.7487C71.6595 27.0564 71.5804 27.2849 71.4134 27.452C71.2463 27.619 71.0178 27.6981 70.7101 27.6981H67.9321C67.6068 27.6981 67.3607 27.619 67.1937 27.452C67.0267 27.2849 66.9475 27.0564 66.9475 26.7487V2.68773C66.9475 2.36246 67.0266 2.10751 67.1761 1.93169C67.3255 1.75587 67.5453 1.66797 67.8266 1.66797H70.3584C70.6397 1.66797 70.8771 1.72071 71.0793 1.8262C71.2815 1.93169 71.4397 2.09871 71.554 2.33607L82.1999 19.1269V2.61739C82.1999 2.3097 82.279 2.07235 82.4461 1.91412Z" fill="white"/>
<path d="M97.3738 27.452C97.2067 27.619 96.9782 27.6981 96.6705 27.6981H93.8925C93.5673 27.6981 93.3211 27.619 93.1541 27.452C92.9871 27.2849 92.908 27.0564 92.908 26.7487V2.61739C92.908 2.3097 92.9871 2.08114 93.1541 1.91412C93.3211 1.74709 93.5673 1.66797 93.8925 1.66797H96.6705C96.9782 1.66797 97.2067 1.74709 97.3738 1.91412C97.5408 2.08114 97.6199 2.3097 97.6199 2.61739V26.7487C97.6199 27.0476 97.5408 27.2849 97.3738 27.452Z" fill="white"/>
</svg>
